<svg width="215" height="174" viewBox="0 0 215 174" fill="none" xmlns="http://www.w3.org/2000/svg">
<path d="M131.076 5.26623C160.399 7.81482 182.276 33.1445 180.383 61.8668L180.333 62.5462C180.198 64.2595 179.98 65.9468 179.686 67.6035L179.061 71.1317L182.2 72.8579C199.397 82.3149 210.439 100.882 209.221 121.237L209.154 122.208C206.951 150.146 182.376 170.963 153.955 168.85L153.284 168.795C147.678 168.308 142.357 166.965 137.437 164.911L137.32 164.862L43.1093 131.057L42.9878 131.02C20.2479 124.142 4.47638 102.615 5.83293 78.5597L5.91031 77.413C8.11318 49.4745 32.6885 28.6583 61.1087 30.771L61.7811 30.8255C66.2039 31.2099 70.4489 32.126 74.4584 33.5038L78.3461 34.8396L80.4083 31.2842C90.1687 14.458 109.094 3.74675 130.075 5.18815L131.076 5.26623Z" fill="#6CCFF6" stroke="white" stroke-width="10"/>
</svg>
