<svg width="264" height="229" viewBox="0 0 264 229" fill="none" xmlns="http://www.w3.org/2000/svg">
<path d="M201.637 101.795C204.989 70.0703 181.653 41.3878 149.514 37.7312C126.23 35.0821 104.714 46.2959 93.3504 64.7392C89.0003 63.1138 84.3837 61.9871 79.5639 61.4387C48.2431 57.8755 20.2039 80.0501 16.937 110.967C14.0955 137.858 30.9312 162.505 55.9735 170.813L148.994 207.01C154.327 209.407 160.117 211.033 166.235 211.729C197.556 215.293 225.595 193.118 228.862 162.201C231.265 139.457 219.592 118.316 200.783 107.311C201.153 105.506 201.439 103.666 201.637 101.795Z" fill="#6CCFF6"/>
</svg>
