<svg width="520" height="480" viewBox="0 0 520 480" fill="none" xmlns="http://www.w3.org/2000/svg">
<path d="M101.737 479.124C84.9137 451.761 73.6537 421.346 68.5998 389.618C66.8492 378.627 65.8558 367.553 65.6152 356.474L37.1064 374.001C20.2833 346.638 9.02332 316.224 3.96941 284.495C-1.08453 252.766 0.166689 220.344 7.65139 189.08C15.1361 157.816 28.7076 128.322 47.5915 102.282C66.4754 76.2428 90.3018 54.1671 117.71 37.3164C145.118 20.4656 175.572 9.16936 207.332 4.07277C239.091 -1.02374 271.536 0.179251 302.812 7.61269C334.088 15.0462 363.584 28.5648 389.615 47.3966C415.646 66.2284 437.703 90.0047 454.526 117.368L426.018 134.895C435.796 140.111 445.229 145.996 454.246 152.519C480.277 171.351 502.334 195.128 519.157 222.491L101.737 479.124Z" fill="#F6AFCE"/>
</svg>
