<svg width="1057" height="869" viewBox="0 0 1057 869" fill="none" xmlns="http://www.w3.org/2000/svg">
<path d="M143.181 313C130.241 154.146 248.965 14.5768 408.358 1.2629C523.832 -8.38244 628.971 50.8845 683.064 144.678C704.766 137.234 727.729 132.325 751.63 130.328C906.962 117.353 1043.11 232.33 1055.72 387.137C1066.69 521.801 980.563 642.243 855.719 679.845L391.436 846.229C364.798 857.361 335.991 864.579 305.674 867.112C150.342 880.086 14.1975 765.11 1.58682 610.304C-7.69025 496.419 52.4739 392.705 146.773 340.666C145.15 331.598 143.945 322.37 143.181 313Z" fill="black" fill-opacity="0.4"/>
</svg>
