<svg width="77" height="42" viewBox="0 0 77 42" fill="none" xmlns="http://www.w3.org/2000/svg">
<path d="M19.8395 10.5961C18.7921 9.56108 17.5642 8.71858 16.1557 8.11679C14.7472 7.50297 13.2303 7.20208 11.6292 7.20208C10.0281 7.20208 8.51122 7.51501 7.10272 8.11679C5.70625 8.71858 4.46628 9.56108 3.4069 10.5961C2.35955 11.6433 1.51685 12.8829 0.914926 14.2911C0.300963 15.6993 0 17.2399 0 18.8406V39.2291C0 39.8429 0.216693 40.3605 0.638041 40.7937C1.05939 41.215 1.58908 41.4316 2.17897 41.4316C2.76886 41.4316 3.32263 41.203 3.7199 40.7697C4.10513 40.3484 4.28571 39.8309 4.28571 39.2291V27.8192C5.08025 28.4692 5.95906 29.0108 6.92214 29.4441C8.36676 30.094 9.95584 30.419 11.6172 30.419C13.2785 30.419 14.7351 30.106 16.1436 29.5042C17.5401 28.9025 18.7801 28.06 19.8274 27.0249C20.8748 25.9898 21.7054 24.7501 22.2953 23.354C22.8972 21.9579 23.1982 20.4414 23.1982 18.8526C23.1982 17.2639 22.8972 15.7234 22.2953 14.3031C21.6934 12.895 20.8627 11.6553 19.8274 10.6082L19.8395 10.5961ZM11.6292 11.5349C12.6525 11.5349 13.6155 11.7275 14.4944 12.1126C15.3732 12.4978 16.1557 13.0274 16.8178 13.6773C17.4679 14.3272 17.9976 15.1095 18.3708 16.0002C18.7439 16.8908 18.9366 17.8416 18.9366 18.8406C18.9366 19.8396 18.7439 20.7663 18.3708 21.6449C17.9976 22.5235 17.4679 23.3179 16.8178 23.9678C16.1677 24.6298 15.3852 25.1594 14.5064 25.5445C13.6276 25.9296 12.6645 26.1222 11.6412 26.1222C10.618 26.1222 9.66692 25.9296 8.78811 25.5445C7.89726 25.1594 7.11476 24.6298 6.46468 23.9678C5.80256 23.3059 5.2849 22.5235 4.89967 21.6329C4.51444 20.7543 4.32182 19.8155 4.32182 18.8406C4.32182 17.8657 4.51444 16.8908 4.89967 16.0122C5.2849 15.1216 5.8146 14.3393 6.46468 13.6893C7.11476 13.0394 7.89726 12.5098 8.78811 12.1247C9.67896 11.7395 10.63 11.547 11.6412 11.547L11.6292 11.5349Z" fill="#EF3D2A"/>
<path d="M28.8674 7.20208C28.2775 7.20208 27.7599 7.40668 27.3385 7.82793C26.9172 8.23715 26.7005 8.77875 26.7005 9.38054V28.0961C26.7005 28.6858 26.9172 29.2154 27.3385 29.6246C27.7599 30.0338 28.2775 30.2505 28.8674 30.2505C29.4573 30.2505 29.9509 30.0338 30.3602 29.6246C30.7695 29.2154 30.9862 28.6858 30.9862 28.0961V9.38054C30.9862 8.77875 30.7936 8.26122 30.3963 7.83997C29.999 7.41872 29.4693 7.20208 28.8674 7.20208Z" fill="#EF3D2A"/>
<path d="M52.7276 23.5591C52.3664 23.5591 52.0414 23.6314 51.7645 23.7878C51.5478 23.9082 51.3432 24.0406 51.1506 24.2091H51.1265C50.4282 24.8349 49.6939 25.2803 48.9234 25.5571C48.1409 25.8339 47.2862 25.9663 46.3833 25.9663C45.348 25.9663 44.3849 25.7857 43.5061 25.4247C42.6273 25.0636 41.8448 24.5581 41.1947 23.9202C40.5446 23.2823 40.027 22.5361 39.6417 21.6695C39.2686 20.815 39.0759 19.8762 39.0759 18.8893V11.4994H48.3095C48.9234 11.4994 49.4411 11.2948 49.8504 10.8855C50.2597 10.4763 50.4884 9.97083 50.4884 9.40515C50.4884 8.80336 50.2717 8.28583 49.8504 7.86458C49.429 7.44333 48.8993 7.21465 48.3095 7.21465H39.0759V2.7494C39.0759 2.14762 38.8472 1.60601 38.4138 1.19679C37.9804 0.787581 37.4628 0.582973 36.8729 0.582973C36.283 0.582973 35.7774 0.799616 35.356 1.22087C34.9347 1.64212 34.718 2.15965 34.718 2.76144V18.8652C34.718 20.478 35.031 21.9945 35.6329 23.3786C36.2348 24.7627 37.0775 25.9783 38.1249 26.9893C39.1722 28.0124 40.4242 28.8187 41.8328 29.3844C43.2413 29.9621 44.7701 30.251 46.3713 30.251C47.8279 30.251 49.2244 30.0103 50.4884 29.5289C51.7645 29.0474 52.9202 28.3132 53.9194 27.3745C54.1602 27.1458 54.3528 26.881 54.4973 26.5681C54.6297 26.2672 54.7019 25.9542 54.7019 25.6413C54.7019 25.0877 54.4973 24.5822 54.112 24.185C53.7268 23.7878 53.2453 23.5712 52.7276 23.5712V23.5591Z" fill="#EF3D2A"/>
<path d="M77 18.6477C77 25.0507 71.7994 30.2501 65.3949 30.2501C58.9904 30.2501 53.7898 25.0507 53.7898 18.6477C53.7898 12.2447 58.9904 7.04528 65.3949 7.04528C71.7994 7.04528 77 12.2447 77 18.6477ZM62.5538 11.9318C61.6629 12.3169 60.8804 12.8465 60.2304 13.4964C59.5803 14.1463 59.0506 14.9407 58.6654 15.8193C58.2801 16.6979 58.0875 17.6608 58.0875 18.6477C58.0875 19.6346 58.2801 20.5734 58.6654 21.452C59.0506 22.3306 59.5803 23.125 60.2304 23.7869C60.8804 24.4489 61.6629 24.9785 62.5538 25.3636C63.4326 25.7488 64.3957 25.9413 65.4069 25.9413C66.4182 25.9413 67.3933 25.7488 68.2721 25.3636C69.1509 24.9785 69.9334 24.4489 70.5835 23.7869C71.2336 23.125 71.7633 22.3427 72.1364 21.4641C72.5096 20.5855 72.7023 19.6467 72.7023 18.6597C72.7023 17.6728 72.5096 16.71 72.1364 15.8193C71.7633 14.9287 71.2336 14.1463 70.5835 13.4964C69.9334 12.8465 69.1509 12.3169 68.26 11.9318C67.3812 11.5466 66.4182 11.3541 65.3949 11.3541C64.3716 11.3541 63.4206 11.5466 62.5418 11.9318H62.5538Z" fill="#EF3D2A"/>
<path d="M28.8549 4.92724C30.0583 4.92724 31.0339 3.95191 31.0339 2.74878C31.0339 1.54564 30.0583 0.570312 28.8549 0.570312C27.6515 0.570312 26.6759 1.54564 26.6759 2.74878C26.6759 3.95191 27.6515 4.92724 28.8549 4.92724Z" fill="#EF3D2A"/>
</svg>
