<svg width="2830" height="1858" viewBox="0 0 2830 1858" fill="none" xmlns="http://www.w3.org/2000/svg">
<path d="M301.135 539.426C283.44 543.441 266.415 545.993 249.012 545.7C211.165 545.062 176.226 535.024 144.634 513.918C140.533 511.178 136.441 508.426 130.734 504.6C130.571 509.509 130.357 512.966 130.356 516.423C130.335 571.391 130.356 626.359 130.314 681.327C130.311 685.979 130.086 690.644 129.699 695.281C128.132 714.029 114.977 727.353 97.2261 728.303C77.4362 729.363 61.7717 717.421 58.3684 698.462C57.7268 694.887 57.6875 691.171 57.6865 687.521C57.653 575.919 57.5658 464.318 57.6881 352.716C57.7896 260.136 122.808 180.03 213.856 162.917C275.523 151.326 331.498 165.934 379.165 207.8C415.673 239.866 436.597 280.424 442.382 328.666C449.298 386.34 433.704 437.228 395.486 480.976C370.267 509.844 338.565 528.547 301.135 539.426ZM154.062 281.133C137.9 303.723 129.361 328.576 130.238 356.683C131.27 389.766 144.4 417.643 167.879 439.858C195.007 465.528 227.828 476.945 265.647 472.396C294.991 468.867 320.191 456.631 339.451 434.663C373.7 395.597 381.508 351.197 360.72 303.062C339.094 252.985 282.246 222.56 225.844 234.964C196.86 241.338 173.141 256.451 154.062 281.133Z" fill="#EE3D2A"/>
<path d="M1317.22 264.885C1343.18 321.098 1344.02 377.288 1318.12 432.44C1293.01 485.904 1251.02 521.461 1193.42 536.16C1132.5 551.708 1075.63 541.493 1025.48 502.72C982.077 469.167 957.055 424.664 951.64 369.664C945.978 312.164 962.454 261.832 1001.4 219.222C1035.41 182.005 1077.75 161.641 1128.2 157.498C1161.12 154.794 1192.4 160.058 1222.37 173.471C1264.66 192.404 1296.08 222.816 1317.22 264.885ZM1069.71 254.662C1040.7 277.689 1024.87 307.963 1022.61 344.636C1021.11 369.091 1028.18 391.835 1041.05 412.917C1081.86 479.791 1180.45 493.912 1236.91 426.095C1289.44 363.009 1264 266.839 1187.21 237.593C1145.83 221.834 1106.82 228.254 1069.71 254.662Z" fill="#ED3D2A"/>
<path d="M949.854 435.703C970.569 452.048 972.318 476.125 954.492 493.993C930.23 518.313 900.778 533.368 867.208 539.174C808.45 549.337 753.71 539.24 705.948 501.893C665.597 470.341 641.795 428.847 635.666 377.695C634.601 368.808 633.757 359.828 633.743 350.889C633.6 264.24 633.681 177.59 633.625 90.9398C633.618 80.706 634.989 70.9344 641.823 62.8286C651.765 51.0366 664.358 45.8794 683.297 51.636C698.251 56.1816 707.42 70.0938 707.614 86.9687C707.847 107.295 707.672 127.627 707.673 147.956C707.673 151.51 707.673 155.065 707.673 159.665C712.483 159.665 716.063 159.665 719.643 159.665C766.3 159.665 812.959 159.783 859.615 159.577C870.324 159.53 878.874 163.142 886.337 170.735C897.19 181.778 898.992 194.765 894.255 208.547C889.327 222.884 877.923 229.818 863.227 231.601C860.598 231.92 857.9 231.67 855.234 231.67C810.242 231.672 765.251 231.671 720.26 231.671C716.617 231.672 712.975 231.671 708.756 231.671C708.354 234.281 707.728 236.465 707.725 238.651C707.665 279.643 706.793 320.66 707.948 361.619C708.936 396.636 725.175 425.137 753.025 445.856C790.4 473.662 831.858 477.756 875.036 461.538C885.074 457.767 893.959 450.63 902.924 444.395C910.822 438.901 917.814 432.407 928.231 431.446C935.81 430.747 942.654 431.602 949.854 435.703Z" fill="#ED3D2A"/>
<path d="M1871.68 1054C1871.68 1083.66 1871.74 1112.33 1871.62 1140.99C1871.61 1144.93 1871.31 1149.02 1870.23 1152.77C1867.64 1161.76 1859.26 1167.67 1850.02 1167.67C1840.21 1167.68 1832.04 1161.58 1829.54 1151.91C1828.65 1148.43 1828.41 1144.71 1828.37 1141.09C1828.23 1129.17 1828.31 1117.24 1828.31 1102.97C1825.29 1106.41 1823.52 1108.07 1822.16 1110.02C1800.7 1140.7 1772.16 1161.84 1735.7 1170.36C1690.54 1180.91 1648.39 1172.51 1610.68 1145.08C1574.3 1118.62 1552.46 1082.26 1543.01 1038.88C1532.71 991.563 1535.44 944.785 1555.95 900.269C1577.72 853.008 1612.55 819.853 1664.14 807.612C1727.49 792.58 1787.91 816.716 1823.31 867.062C1824.26 868.411 1825.27 869.715 1827.81 873.154C1828.04 867.692 1828.29 864.314 1828.3 860.935C1828.32 800.609 1828.28 740.283 1828.38 679.957C1828.38 675.696 1828.71 671.262 1829.91 667.212C1832.71 657.789 1840.57 652.301 1850.08 652.344C1859.89 652.388 1868.08 658.503 1870.46 668.229C1871.47 672.354 1871.64 676.764 1871.64 681.045C1871.7 805.03 1871.68 929.014 1871.68 1054ZM1827.78 1026.47C1830.79 1008.08 1832.39 989.791 1830.58 970.992C1827.47 938.499 1816.76 909.342 1795.45 884.67C1766.01 850.576 1728.1 837.913 1684.19 845.314C1644.32 852.034 1616.19 875.923 1597.83 911.199C1577.74 949.779 1575.2 990.589 1585.05 1032.46C1591.87 1061.47 1606.16 1086.32 1628.65 1105.93C1651.69 1126.03 1678.79 1135.26 1709.48 1134.38C1743.71 1133.4 1771.93 1119.94 1794.45 1094.44C1811.34 1075.33 1821.79 1052.89 1827.78 1026.47Z" fill="#EB3C29"/>
<path d="M677.446 1787.4C658.923 1795.96 639.812 1799.62 620.556 1799.41C566.874 1798.82 523.462 1776.97 491.918 1733.07C463.523 1693.55 453.873 1648.7 455.852 1600.87C456.975 1573.73 462.182 1547.36 474.227 1522.8C499.402 1471.46 538.34 1437.7 596.417 1429.7C647.033 1422.72 691.227 1436.4 727.473 1473.09C733.743 1479.44 738.901 1486.89 745.265 1494.67C745.676 1492.06 746.25 1490.03 746.271 1488C746.372 1478.01 745.971 1468 746.417 1458.02C747.036 1444.14 756.507 1435.6 769.704 1436.33C778.393 1436.81 785.576 1442.08 788.08 1450.67C789.264 1454.73 789.618 1459.16 789.621 1463.43C789.702 1564.04 789.689 1664.66 789.662 1765.28C789.661 1768.59 789.822 1772.03 789.062 1775.2C786.525 1785.8 776.551 1793.06 766.233 1792.23C754.986 1791.32 746.895 1782.97 746.42 1770.95C746.012 1760.63 746.352 1750.29 746.296 1739.96C746.281 1737.1 746.033 1734.23 745.758 1728.67C727.563 1755.6 705.816 1774.92 677.446 1787.4ZM738.209 1550.93C732.125 1539.89 727.063 1528.11 719.761 1517.94C699.392 1489.58 671.712 1472.16 636.688 1468.51C582.707 1462.9 533.295 1492.47 511.936 1542.62C491.864 1589.75 492.224 1637.3 512.521 1683.98C531.404 1727.41 573.247 1764.11 634.693 1758.52C667.466 1755.54 693.638 1741.09 714.422 1716.41C738.574 1687.73 748.312 1653.6 749.54 1616.81C750.279 1594.71 746.641 1573.13 738.209 1550.93Z" fill="#EB3C29"/>
<path d="M1818.97 1430.58C1848.3 1436.88 1873.99 1448.44 1895.91 1468.17C1918.31 1488.34 1933.19 1513.05 1941.91 1541.61C1946.69 1557.23 1948.68 1573.36 1949.81 1589.68C1950.81 1604.09 1939.59 1614.62 1925.18 1614.54C1842.87 1614.12 1760.55 1614.34 1678.24 1614.34C1674.35 1614.34 1670.45 1614.34 1666.01 1614.34C1665.84 1634.75 1669.02 1653.27 1675.7 1671.13C1693.64 1719.13 1727.98 1748.14 1778.33 1757.07C1812.44 1763.11 1845.48 1759.03 1874.89 1739.25C1884.98 1732.46 1893.47 1723.28 1902.64 1715.14C1905.36 1712.72 1907.65 1709.71 1910.63 1707.69C1919.57 1701.62 1929.86 1702.55 1936.02 1709.6C1942.08 1716.55 1942.37 1727.7 1935.76 1735.26C1929.22 1742.74 1922.34 1750.07 1914.77 1756.48C1890.8 1776.78 1864.28 1792.57 1832.56 1796.86C1778.07 1804.23 1727.83 1793.57 1684.86 1757.82C1654.04 1732.18 1635.66 1698.58 1628.39 1659.3C1620.95 1619.07 1622.31 1578.96 1636.52 1540.34C1656.21 1486.86 1692.56 1449.81 1747.99 1433.26C1771.02 1426.38 1794.56 1426.76 1818.97 1430.58ZM1895.95 1535.21C1873.71 1487.03 1814.82 1459.61 1760.08 1472.73C1702.67 1486.48 1672.64 1542.08 1670.86 1574.86C1684.93 1576.69 1897.97 1576.02 1905.26 1574.02C1904.22 1561.15 1902.17 1548.48 1895.95 1535.21Z" fill="#EC3C2A"/>
<path d="M2117.76 1465.72C2138.31 1448.57 2160.67 1436.28 2186.43 1431.48C2240.91 1421.34 2289.54 1433.58 2330.28 1471.94C2358.53 1498.53 2373.59 1532.06 2378.32 1570.36C2379.21 1577.6 2380.15 1584.89 2380.23 1592.17C2380.37 1604.6 2371.61 1613.52 2359.2 1614.28C2356.21 1614.46 2353.2 1614.34 2350.2 1614.34C2269.88 1614.34 2189.56 1614.34 2109.24 1614.34C2105.33 1614.34 2101.42 1614.34 2096.15 1614.34C2096.76 1622.37 2096.93 1629.23 2097.86 1635.98C2103.52 1677 2120.63 1711.54 2155.35 1735.82C2175.2 1749.71 2197.49 1756.16 2221.51 1758.6C2234.96 1759.97 2248.05 1759.25 2261.13 1757.03C2291.35 1751.89 2315.19 1735.7 2335.28 1713.21C2337.66 1710.54 2340.38 1707.88 2343.48 1706.19C2352.46 1701.28 2361.11 1703.24 2367.54 1711.07C2373.25 1718.01 2372.97 1727.04 2366.61 1734.79C2350.75 1754.07 2331.61 1769.29 2309.58 1780.99C2289.9 1791.45 2269.18 1797.36 2246.76 1798.56C2202.07 1800.97 2160.89 1791.31 2124.42 1764.85C2087.53 1738.1 2066.2 1701.23 2058.64 1656.82C2052.97 1623.47 2053.48 1589.88 2061.92 1556.8C2071.07 1520.96 2089.53 1490.75 2117.76 1465.72ZM2168.07 1480.8C2129.39 1500.5 2109.1 1533.29 2099.89 1574.7C2116.58 1576.87 2328.27 1576.05 2335.26 1573.89C2335.38 1572.67 2335.71 1571.34 2335.6 1570.05C2333.15 1542.68 2322.19 1519.02 2301.42 1501.28C2262.04 1467.63 2217.77 1460.24 2168.07 1480.8Z" fill="#ED3C2A"/>
<path d="M761.742 813.836C824.805 793.866 883.067 800.738 934.489 842.726C968.449 870.455 988.45 907.273 995.743 950.599C997.776 962.676 999.556 974.999 999.462 987.194C999.095 1034.79 986.77 1078.63 955.051 1115.35C920.848 1154.95 877.081 1173.89 824.897 1174.41C781.559 1174.83 743.011 1161.96 709.959 1133.82C678.412 1106.96 658.923 1072.6 650.77 1032.26C642.71 992.367 644.794 952.746 660.106 914.691C679.319 866.943 712.757 832.973 761.742 813.836ZM898.057 1111.12C919.75 1095.54 935.944 1075.25 945.151 1050.43C962.518 1003.61 961.568 956.868 937.701 912.415C910.931 862.554 863.07 836.845 804.403 844.67C760.103 850.578 728.144 875.733 706.976 914.675C692.405 941.48 688.141 970.541 689.724 1000.64C691.692 1038.05 705.29 1070.78 731.902 1097.11C779.791 1144.49 850.646 1144.5 898.057 1111.12Z" fill="#EC3C29"/>
<path d="M2757.64 1753.97C2757.64 1692.65 2757.81 1632.33 2757.54 1572.01C2757.46 1555.72 2755.55 1539.57 2750.14 1523.96C2738.49 1490.39 2711.67 1470.35 2676.15 1468.27C2632.46 1465.72 2596.73 1481.32 2568.87 1514.74C2555.89 1530.32 2549.48 1548.39 2549.58 1569.03C2549.87 1634.02 2549.68 1699.01 2549.69 1763.99C2549.69 1772.1 2549.02 1779.78 2542.64 1786.05C2536.14 1792.45 2528.57 1793.73 2520.54 1791.18C2512.23 1788.54 2507.72 1781.99 2506.42 1773.41C2506.08 1771.12 2506.32 1768.75 2506.32 1766.42C2506.31 1665.77 2506.34 1565.12 2506.25 1464.47C2506.25 1457.61 2507.03 1451.31 2511.62 1445.8C2517.1 1439.19 2524.15 1437 2532.17 1438.71C2540.17 1440.4 2546.14 1445.12 2548.11 1453.46C2549.09 1457.61 2549.5 1461.96 2549.62 1466.24C2549.85 1474.43 2549.69 1482.63 2549.69 1492.98C2556.6 1485.59 2561.75 1479.73 2567.27 1474.24C2596.61 1445.07 2631.89 1428.9 2673.35 1427.87C2695.76 1427.31 2717.98 1430.25 2738.31 1440.62C2766.36 1454.93 2783.28 1478.49 2791.89 1508.28C2797.07 1526.23 2799.77 1544.58 2799.74 1563.36C2799.61 1632.01 2799.7 1700.67 2799.67 1769.32C2799.67 1780.31 2794.71 1787.86 2785.49 1791.03C2771.01 1796 2756.61 1785.72 2757.58 1771.96C2757.98 1766.32 2757.65 1760.63 2757.64 1753.97Z" fill="#EB3C29"/>
<path d="M1206.36 1475.76C1221.61 1500.94 1228.14 1527.89 1228.25 1556.3C1228.53 1627.28 1228.36 1698.25 1228.34 1769.23C1228.33 1780.75 1224.62 1786.79 1215.46 1790.54C1201.43 1796.27 1186.7 1787.07 1186.42 1771.9C1186.06 1752.92 1186.32 1733.92 1186.32 1714.92C1186.32 1666.27 1186.35 1617.62 1186.31 1568.97C1186.29 1549.46 1183.1 1530.57 1174.58 1512.83C1163.62 1489.99 1145.41 1476.07 1120.92 1470.58C1067.53 1458.6 1013.71 1485.57 989.468 1527.07C982.085 1539.7 978.353 1553.31 978.35 1567.94C978.341 1633.91 978.298 1699.89 978.409 1765.87C978.422 1773.84 977.308 1780.9 970.96 1786.66C964.211 1792.78 956.558 1793.75 948.67 1790.86C940.964 1788.03 936.403 1781.92 935.776 1773.42C935.605 1771.1 935.658 1768.76 935.658 1766.43C935.653 1665.46 935.676 1564.5 935.606 1463.53C935.601 1456.69 936.127 1450.32 941.363 1445.11C947.921 1438.57 955.406 1436.47 964.131 1439.67C972.774 1442.84 977.932 1449.02 978.223 1458.33C978.566 1469.3 978.303 1480.29 978.303 1492.95C980.862 1490.68 982.611 1489.53 983.866 1487.97C1007.49 1458.69 1037.46 1439.04 1074.23 1431.3C1107.92 1424.21 1141.09 1426.64 1172.06 1443.36C1186.07 1450.92 1197.08 1461.97 1206.36 1475.76Z" fill="#ED3C2A"/>
<path d="M1125.66 834.735C1127.07 820.771 1135.83 812.908 1148.08 813.716C1159.52 814.471 1167.64 823.509 1167.65 835.956C1167.71 899.943 1167.69 963.93 1167.67 1027.92C1167.67 1041.61 1168.79 1055.22 1172.64 1068.37C1181.68 1099.27 1201.8 1119.58 1232.88 1127.91C1259.49 1135.04 1286.27 1134.68 1312.37 1125.03C1345.26 1112.88 1362.57 1088.13 1367.75 1054.28C1369.09 1045.45 1369.55 1036.42 1369.57 1027.48C1369.72 964.823 1369.66 902.169 1369.64 839.515C1369.64 833.492 1369.49 827.49 1373.35 822.296C1378.63 815.185 1387.79 811.981 1396.46 814.289C1405.25 816.628 1411.28 823.645 1412.23 832.824C1412.47 835.134 1412.34 837.485 1412.34 839.817C1412.35 904.804 1412.47 969.792 1412.28 1034.78C1412.21 1057.93 1408.32 1080.42 1398.42 1101.62C1385.04 1130.26 1363.09 1150.13 1333.93 1160.92C1290.27 1177.08 1245.8 1177.5 1202.24 1160.59C1165.88 1146.48 1142.19 1119.84 1131.67 1081.92C1127.64 1067.4 1125.59 1052.69 1125.61 1037.61C1125.71 970.287 1125.65 902.967 1125.66 834.735Z" fill="#ED3C2A"/>
<path d="M59.9137 1645.97C56.0732 1617.13 56.787 1589.34 63.9582 1561.99C77.4961 1510.37 107.514 1471.23 154.695 1446.11C177.284 1434.08 201.914 1428.88 227.628 1428.15C256.825 1427.33 285.354 1430.43 312.947 1440.2C327.167 1445.24 340.364 1452.11 350.937 1463.36C357.41 1470.25 359.466 1478.23 358.12 1487.26C356.368 1499.01 345.129 1506.11 333.749 1502.33C329.775 1501.01 325.395 1498.98 322.745 1495.93C309.506 1480.68 292.119 1474.11 272.999 1470.87C245.778 1466.25 218.557 1465.33 192.398 1475.62C138.847 1496.67 109.659 1537.01 101.776 1593.33C97.5291 1623.67 101.559 1653.23 114.599 1680.87C136.259 1726.79 171.881 1753.82 223.458 1758.43C247.333 1760.56 270.475 1758.78 292.762 1749.43C305.158 1744.22 316.464 1737.53 325.675 1727.46C331.864 1720.7 345.412 1719.3 352.306 1724.14C359.596 1729.26 361.769 1739.93 357.055 1749.34C351.29 1760.85 341.149 1768.11 330.506 1774.27C304.776 1789.16 277.056 1797.02 247.136 1798.63C223.279 1799.91 200.005 1798.21 177.313 1791.24C136.34 1778.65 105.584 1752.94 83.8825 1716.2C71.201 1694.73 63.7353 1671.43 59.9137 1645.97Z" fill="#EC3C29"/>
<path d="M107.247 857.273C132.505 831.251 161.658 812.972 196.964 807.062C242.818 799.385 287.883 802.133 330.276 823.567C337.012 826.973 343.312 831.648 348.962 836.69C355.344 842.386 358.887 849.826 358.417 858.89C358.005 866.84 355.206 873.599 347.922 876.817C340.621 880.043 332.893 879.325 326.128 874.442C323.44 872.501 320.727 870.416 318.601 867.909C309.793 857.523 298.221 852.034 285.361 848.994C254.06 841.594 222.557 839.735 191.944 851.099C150.361 866.534 121.983 896.234 108.704 938.241C91.5713 992.439 98.8653 1043.63 135.192 1088.69C158.875 1118.07 190.663 1132.54 228.155 1134.23C250.551 1135.24 272.684 1133.97 293.67 1124.48C305.014 1119.34 315.47 1113.27 324.355 1104.39C327.52 1101.22 331.693 1098.35 335.925 1097.1C350.808 1092.72 363.06 1104.8 358.716 1119.72C357.206 1124.91 354.075 1130.28 350.177 1133.97C343.471 1140.32 336.204 1146.61 328.091 1150.86C271.98 1180.27 214.139 1183.79 156.065 1157.99C111.948 1138.39 83.6445 1103.03 68.6437 1057.85C52.3915 1008.9 53.1813 959.692 72.5189 911.38C80.5219 891.385 92.4527 873.804 107.247 857.273Z" fill="#EC3C29"/>
<path d="M1445.65 1359.27C1445.67 1385.45 1445.67 1410.75 1445.67 1437.27C1449.47 1437.41 1452.66 1437.63 1455.85 1437.63C1474.84 1437.67 1493.84 1437.69 1512.83 1437.64C1519.06 1437.62 1524.79 1438.77 1529.1 1443.71C1534.92 1450.37 1536.3 1458.23 1532.87 1466.06C1529.6 1473.51 1523.34 1477.75 1514.68 1477.71C1495.68 1477.62 1476.68 1477.69 1457.69 1477.69C1454.1 1477.69 1450.51 1477.69 1446.25 1477.69C1446.03 1481.8 1445.71 1485.03 1445.71 1488.26C1445.68 1562.24 1445.65 1636.22 1445.77 1710.21C1445.78 1716.14 1446.52 1722.14 1447.55 1728C1450.97 1747.53 1465.74 1755.79 1484.95 1753.83C1488.23 1753.5 1491.42 1752.37 1494.66 1751.66C1504.22 1749.56 1511.31 1752.49 1514.69 1759.92C1518.51 1768.34 1516.6 1778.16 1508.88 1783.04C1503.09 1786.7 1496.47 1790.08 1489.83 1791.18C1475.31 1793.58 1460.72 1792.38 1446.36 1788.59C1426.51 1783.34 1414.53 1770.02 1408.03 1751.3C1405.98 1745.39 1404.74 1739.06 1404.17 1732.82C1403.14 1721.59 1402.41 1710.28 1402.39 1699.01C1402.23 1629.69 1402.31 1560.37 1402.31 1491.05C1402.31 1487.1 1402.31 1483.14 1402.31 1478.25C1398.5 1478.04 1395.3 1477.73 1392.11 1477.71C1379.11 1477.65 1366.11 1477.89 1353.12 1477.62C1341.36 1477.38 1332.91 1469.52 1332.33 1458.93C1331.65 1446.6 1339.33 1438.11 1352.24 1437.75C1365.23 1437.39 1378.23 1437.66 1391.23 1437.65C1394.49 1437.65 1397.74 1437.65 1401.72 1437.65C1401.95 1433.49 1402.28 1430.27 1402.29 1427.05C1402.34 1407.72 1402.3 1388.39 1402.32 1369.07C1402.33 1366.4 1402.24 1363.71 1402.61 1361.09C1404.48 1347.89 1411.22 1340.72 1422.42 1339.76C1433.78 1338.78 1441.26 1344.5 1445.48 1357.4C1445.59 1357.71 1445.58 1358.06 1445.65 1359.27Z" fill="#EB3C29"/>
<path d="M500.318 308C500.319 271.697 500.297 236.395 500.33 201.092C500.342 188.342 503.265 176.742 513.476 167.967C524.095 158.84 536.202 157.648 549.053 161.37C562.197 165.178 569.49 174.605 572.095 187.651C573.191 193.138 573.613 198.844 573.618 204.452C573.707 302.034 573.705 399.615 573.624 497.197C573.619 502.808 573.144 508.479 572.244 514.017C569.507 530.851 555.88 541.375 538.88 542.568C520.205 543.878 501.586 530.842 500.351 505.828C500.22 503.17 500.319 500.5 500.319 497.836C500.318 434.891 500.318 371.945 500.318 308Z" fill="#EC3C29"/>
<path d="M523.695 928C523.695 999.32 523.719 1069.64 523.638 1139.96C523.633 1144.23 523.378 1148.67 522.233 1152.74C519.703 1161.75 511.305 1167.66 502.061 1167.68C492.264 1167.71 484.087 1161.61 481.535 1151.98C480.698 1148.82 480.355 1145.44 480.354 1142.16C480.299 987.519 480.323 832.88 480.26 678.242C480.256 669.408 482.388 661.736 489.988 656.545C503.103 647.587 518.994 653.694 522.735 669.193C523.578 672.684 523.656 676.421 523.658 680.045C523.706 762.363 523.695 844.682 523.695 928Z" fill="#E93C29"/>
<path d="M549.538 120.27C530.166 125.35 515.386 120.242 505.941 105.714C497.456 92.6602 498.396 75.4385 508.287 62.7732C520.831 46.7095 546.126 44.6887 561.838 58.495C576.722 71.5734 577.942 96.2363 563.96 110.364C560.1 114.265 554.907 116.847 549.538 120.27Z" fill="#EB3C29"/>
</svg>
