<svg width="574" height="663" viewBox="0 0 574 663" fill="none" xmlns="http://www.w3.org/2000/svg">
<g clip-path="url(#clip0_91_1102)">
<rect y="0.973633" width="574" height="698" fill="#F0F4F5"/>
<path d="M88.8717 207.109L34.4191 183.451C-10.1698 164.078 -57.6739 202.951 -48.4679 251.278L-35.9775 316.846C-26.7796 365.13 31.607 383.841 65.9735 349.518L107.936 307.608C138.582 276.999 128.599 224.37 88.8717 207.109Z" fill="#C5D475"/>
<path d="M360.292 67.9733C383.838 89.8217 402.844 116.102 416.223 145.313C420.857 155.431 424.783 165.832 427.987 176.441L450.75 151.909C474.296 173.758 493.301 200.038 506.68 229.249C520.059 258.459 527.55 290.029 528.725 322.155C529.9 354.281 524.736 386.335 513.528 416.486C502.321 446.636 485.288 474.292 463.404 497.877C441.52 521.461 415.212 540.513 385.983 553.941C356.754 567.369 325.176 574.912 293.052 576.14C260.928 577.368 228.887 572.256 198.759 561.096C168.63 549.936 141.004 532.946 117.458 511.098L140.22 486.567C129.402 484.165 118.736 481.025 108.301 477.16C78.1723 466 50.546 449.01 27 427.162L360.292 67.9733Z" fill="#F6AFCE"/>
<circle cx="211" cy="134.974" r="30" fill="#FFC811"/>
</g>
<defs>
<clipPath id="clip0_91_1102">
<rect width="574" height="662" fill="white" transform="translate(0 0.973633)"/>
</clipPath>
</defs>
</svg>
